<svg xmlns="http://www.w3.org/2000/svg" viewBox="0 0 64 64" role="img" aria-label="自学C大纲">
  <path d="M42.8 16.4C39.3 13 34.5 11.1 29.1 11.1 17.2 11.1 8.5 20 8.5 32s8.7 20.9 20.6 20.9c5.8 0 10.9-2 14.6-5.6l-5.4-6c-2.3 2.3-5.5 3.6-9 3.6-7 0-12.2-5.5-12.2-12.9s5.2-12.9 12.2-12.9c3.4 0 6.4 1.2 8.7 3.4l4.8-6.1Z" fill="#2563eb"/>
  <g stroke="#172033" stroke-width="2.5" stroke-linecap="round" stroke-linejoin="round">
    <path d="M34.8 23.7v18.1c0 2.8 4.7 5.1 10.5 5.1s10.5-2.3 10.5-5.1V23.7" fill="#ffffff"/>
    <ellipse cx="45.3" cy="23.7" rx="10.5" ry="5.1" fill="#f8fafc"/>
    <path d="M34.8 32.7c0 2.8 4.7 5.1 10.5 5.1s10.5-2.3 10.5-5.1" fill="none"/>
  </g>
  <path d="M34.8 41.8c0 2.8 4.7 5.1 10.5 5.1s10.5-2.3 10.5-5.1" fill="#34d399" stroke="#172033" stroke-width="2.5" stroke-linecap="round" stroke-linejoin="round"/>
</svg>
